# Blender 3.6.4
# www.blender.org
o Icosphere
v -2.149454 -1.000000 0.000000
v -1.425854 -0.447215 0.525720
v -2.425839 -0.447215 0.850640
v -3.043879 -0.447215 0.000000
v -2.425839 -0.447215 -0.850640
v -1.425854 -0.447215 -0.525720
v -1.873069 0.447215 0.850640
v -2.873054 0.447215 0.525720
v -2.873054 0.447215 -0.525720
v -1.873069 0.447215 -0.850640
v -1.255029 0.447215 0.000000
v -2.149454 1.000000 0.000000
vn 0.1876 -0.7947 0.5774
vn 0.6071 -0.7947 -0.0000
vn -0.4911 -0.7947 0.3568
vn -0.4911 -0.7947 -0.3568
vn 0.1876 -0.7947 -0.5774
vn 0.9822 -0.1876 -0.0000
vn 0.3035 -0.1876 0.9342
vn -0.7946 -0.1876 0.5774
vn -0.7946 -0.1876 -0.5774
vn 0.3035 -0.1876 -0.9342
vn 0.7946 0.1876 0.5774
vn -0.3035 0.1876 0.9342
vn -0.9822 0.1876 -0.0000
vn -0.3035 0.1876 -0.9342
vn 0.7946 0.1876 -0.5774
vn 0.4911 0.7947 0.3568
vn -0.1876 0.7947 0.5774
vn -0.6071 0.7947 -0.0000
vn -0.1876 0.7947 -0.5774
vn 0.4911 0.7947 -0.3568
vt 0.181819 0.000000
vt 0.272728 0.157461
vt 0.090910 0.157461
vt 0.363637 0.000000
vt 0.454546 0.157461
vt 0.909091 0.000000
vt 1.000000 0.157461
vt 0.818182 0.157461
vt 0.727273 0.000000
vt 0.636364 0.157461
vt 0.545455 0.000000
vt 0.363637 0.314921
vt 0.181819 0.314921
vt 0.909091 0.314921
vt 0.727273 0.314921
vt 0.545455 0.314921
vt 0.000000 0.314921
vt 0.272728 0.472382
vt 0.090910 0.472382
vt 0.818182 0.472382
vt 0.636364 0.472382
vt 0.454546 0.472382
s 0
f 1/1/1 2/2/1 3/3/1
f 2/2/2 1/4/2 6/5/2
f 1/6/3 3/7/3 4/8/3
f 1/9/4 4/8/4 5/10/4
f 1/11/5 5/10/5 6/5/5
f 2/2/6 6/5/6 11/12/6
f 3/3/7 2/2/7 7/13/7
f 4/8/8 3/7/8 8/14/8
f 5/10/9 4/8/9 9/15/9
f 6/5/10 5/10/10 10/16/10
f 2/2/11 11/12/11 7/13/11
f 3/3/12 7/13/12 8/17/12
f 4/8/13 8/14/13 9/15/13
f 5/10/14 9/15/14 10/16/14
f 6/5/15 10/16/15 11/12/15
f 7/13/16 11/12/16 12/18/16
f 8/17/17 7/13/17 12/19/17
f 9/15/18 8/14/18 12/20/18
f 10/16/19 9/15/19 12/21/19
f 11/12/20 10/16/20 12/22/20
o Icosphere.001
v 1.599920 -1.000000 0.000000
v 2.323520 -0.447215 0.525720
v 1.323535 -0.447215 0.850640
v 0.705495 -0.447215 0.000000
v 1.323535 -0.447215 -0.850640
v 2.323520 -0.447215 -0.525720
v 1.876305 0.447215 0.850640
v 0.876320 0.447215 0.525720
v 0.876320 0.447215 -0.525720
v 1.876305 0.447215 -0.850640
v 2.494345 0.447215 0.000000
v 1.599920 1.000000 0.000000
vn 0.1876 -0.7947 0.5774
vn 0.6071 -0.7947 -0.0000
vn -0.4911 -0.7947 0.3568
vn -0.4911 -0.7947 -0.3568
vn 0.1876 -0.7947 -0.5774
vn 0.9822 -0.1876 -0.0000
vn 0.3035 -0.1876 0.9342
vn -0.7946 -0.1876 0.5774
vn -0.7946 -0.1876 -0.5774
vn 0.3035 -0.1876 -0.9342
vn 0.7946 0.1876 0.5774
vn -0.3035 0.1876 0.9342
vn -0.9822 0.1876 -0.0000
vn -0.3035 0.1876 -0.9342
vn 0.7946 0.1876 -0.5774
vn 0.4911 0.7947 0.3568
vn -0.1876 0.7947 0.5774
vn -0.6071 0.7947 -0.0000
vn -0.1876 0.7947 -0.5774
vn 0.4911 0.7947 -0.3568
vt 0.181819 0.000000
vt 0.272728 0.157461
vt 0.090910 0.157461
vt 0.363637 0.000000
vt 0.454546 0.157461
vt 0.909091 0.000000
vt 1.000000 0.157461
vt 0.818182 0.157461
vt 0.727273 0.000000
vt 0.636364 0.157461
vt 0.545455 0.000000
vt 0.363637 0.314921
vt 0.181819 0.314921
vt 0.909091 0.314921
vt 0.727273 0.314921
vt 0.545455 0.314921
vt 0.000000 0.314921
vt 0.272728 0.472382
vt 0.090910 0.472382
vt 0.818182 0.472382
vt 0.636364 0.472382
vt 0.454546 0.472382
s 0
f 13/23/21 14/24/21 15/25/21
f 14/24/22 13/26/22 18/27/22
f 13/28/23 15/29/23 16/30/23
f 13/31/24 16/30/24 17/32/24
f 13/33/25 17/32/25 18/27/25
f 14/24/26 18/27/26 23/34/26
f 15/25/27 14/24/27 19/35/27
f 16/30/28 15/29/28 20/36/28
f 17/32/29 16/30/29 21/37/29
f 18/27/30 17/32/30 22/38/30
f 14/24/31 23/34/31 19/35/31
f 15/25/32 19/35/32 20/39/32
f 16/30/33 20/36/33 21/37/33
f 17/32/34 21/37/34 22/38/34
f 18/27/35 22/38/35 23/34/35
f 19/35/36 23/34/36 24/40/36
f 20/39/37 19/35/37 24/41/37
f 21/37/38 20/36/38 24/42/38
f 22/38/39 21/37/39 24/43/39
f 23/34/40 22/38/40 24/44/40
